<?xml version="1.0" encoding="UTF-8" standalone="no"?>
<svg
   width="20"
   height="20"
   viewBox="0 0 20 20"
   version="1.1"
   id="svg4"
   sodipodi:docname="arrow-maximize-vertical-24-filled.svg"
   inkscape:version="1.1.1 (3bf5ae0d25, 2021-09-20)"
   xmlns:inkscape="http://www.inkscape.org/namespaces/inkscape"
   xmlns:sodipodi="http://sodipodi.sourceforge.net/DTD/sodipodi-0.dtd"
   xmlns="http://www.w3.org/2000/svg"
   xmlns:svg="http://www.w3.org/2000/svg">
  <defs
     id="defs8" />
  <sodipodi:namedview
     id="namedview6"
     pagecolor="#ffffff"
     bordercolor="#666666"
     borderopacity="1.0"
     inkscape:pageshadow="2"
     inkscape:pageopacity="0.0"
     inkscape:pagecheckerboard="0"
     showgrid="false"
     fit-margin-top="0"
     fit-margin-left="0"
     fit-margin-right="0"
     fit-margin-bottom="0"
     inkscape:zoom="26.833333"
     inkscape:cx="7.8819876"
     inkscape:cy="9.9875776"
     inkscape:window-width="1920"
     inkscape:window-height="1051"
     inkscape:window-x="-9"
     inkscape:window-y="-9"
     inkscape:window-maximized="1"
     inkscape:current-layer="svg4" />
  <path
     fill="currentColor"
     d="m 13.207,4.2070004 a 1,1 0 0 1 -1.414,0 L 11,3.4140004 v 3.586 a 1,1 0 1 1 -2,0 v -3.586 l -0.793,0.793 a 1,1 0 0 1 -1.414,-1.414 l 2.5,-2.49999995 A 0.998,0.998 0 0 1 9.997,4.4743837e-7 h 0.006 A 0.99,0.99 0 0 1 10.707,0.29300045 l 2.5,2.49999995 a 1,1 0 0 1 0,1.414 z M 3,9.0000004 A 1,1 0 1 0 3,11 H 17 A 1,1 0 1 0 17,9.0000004 Z M 10.01,20 a 0.996,0.996 0 0 0 0.697,-0.293 l 2.5,-2.5 A 1,1 0 0 0 11.793,15.793 L 11,16.586 V 13 a 1,1 0 1 0 -2,0 v 3.586 L 8.207,15.793 a 1,1 0 0 0 -1.414,1.414 l 2.5,2.5 A 1,1 0 0 0 9.991,20"
     id="path2" />
</svg>
