<?xml version="1.0" encoding="UTF-8" standalone="no"?>
<svg
   width="20"
   height="20"
   viewBox="0 0 20 20"
   version="1.1"
   id="svg4"
   sodipodi:docname="laser-tool-20-filled.svg"
   inkscape:version="1.1.1 (3bf5ae0d25, 2021-09-20)"
   xmlns:inkscape="http://www.inkscape.org/namespaces/inkscape"
   xmlns:sodipodi="http://sodipodi.sourceforge.net/DTD/sodipodi-0.dtd"
   xmlns="http://www.w3.org/2000/svg"
   xmlns:svg="http://www.w3.org/2000/svg">
  <defs
     id="defs8" />
  <sodipodi:namedview
     id="namedview6"
     pagecolor="#ffffff"
     bordercolor="#666666"
     borderopacity="1.0"
     inkscape:pageshadow="2"
     inkscape:pageopacity="0.0"
     inkscape:pagecheckerboard="0"
     showgrid="false"
     fit-margin-top="0"
     fit-margin-left="0"
     fit-margin-right="0"
     fit-margin-bottom="0"
     inkscape:zoom="32.2"
     inkscape:cx="6.878882"
     inkscape:cy="8.0124224"
     inkscape:window-width="1920"
     inkscape:window-height="1051"
     inkscape:window-x="-9"
     inkscape:window-y="-9"
     inkscape:window-maximized="1"
     inkscape:current-layer="svg4" />
  <path
     fill="currentColor"
     d="M 2.3529413,0 A 0.5882353,0.5882353 0 0 0 1.764706,0.5882353 V 3.5294118 A 2.3529412,2.3529412 0 0 0 4.1176472,5.882353 H 15.882353 A 2.3529412,2.3529412 0 0 0 18.235294,3.5294118 V 0.5882353 A 0.5882353,0.5882353 0 0 0 17.647059,0 Z m 8.2352947,9.411765 h 4.705882 A 1.7647059,1.7647059 0 0 0 17.058824,7.6470589 V 7.0588236 H 2.9411766 V 7.6470589 A 1.7647059,1.7647059 0 0 0 4.7058825,9.411765 H 9.411765 v 2.941176 a 0.5882355,0.5882355 0 0 0 1.176471,0 z m -6.4705888,5.294118 a 0.5882353,0.5882353 0 0 1 0.5882353,-0.588236 h 1.7647059 a 0.5882355,0.5882355 0 0 1 0,1.176471 H 4.7058825 A 0.5882353,0.5882353 0 0 1 4.1176472,14.705883 Z m 9.4117648,-0.588236 a 0.5882355,0.5882355 0 0 0 0,1.176471 h 1.764706 a 0.5882355,0.5882355 0 0 0 0,-1.176471 z m -2.941176,0.588236 a 0.5882355,0.5882355 0 1 1 -1.176471,0 0.5882355,0.5882355 0 0 1 1.176471,0 z m 0,2.352941 a 0.5882355,0.5882355 0 0 0 -1.176471,0 v 2.352941 a 0.5882355,0.5882355 0 0 0 1.176471,0 z M 8.6517649,15.465883 a 0.5882353,0.5882353 0 0 1 0,0.832941 L 6.887059,18.06353 A 0.58897865,0.58897865 0 0 1 6.0541178,17.230588 l 1.7647059,-1.764705 a 0.5882353,0.5882353 0 0 1 0.8329412,0 z m 2.6964711,0.832941 a 0.58897836,0.58897836 0 0 1 0.832941,-0.832941 l 1.764706,1.764705 a 0.58897894,0.58897894 0 0 1 -0.832942,0.832942 z"
     id="path2"
     style="stroke-width:1" />
</svg>
