<?xml version="1.0" encoding="UTF-8" standalone="no"?>
<svg
   width="26.666666"
   height="26.666666"
   viewBox="0 0 26.666666 26.666666"
   version="1.1"
   id="svg4"
   sodipodi:docname="number-symbol-square-24-filled.svg"
   inkscape:version="1.1.1 (3bf5ae0d25, 2021-09-20)"
   inkscape:export-filename="C:\Users\Cori\Documents\Tareas\TT\design\modulo-hmi\protoraman\assets\images\number-symbol-square-24-filled.png"
   inkscape:export-xdpi="400"
   inkscape:export-ydpi="400"
   xmlns:inkscape="http://www.inkscape.org/namespaces/inkscape"
   xmlns:sodipodi="http://sodipodi.sourceforge.net/DTD/sodipodi-0.dtd"
   xmlns="http://www.w3.org/2000/svg"
   xmlns:svg="http://www.w3.org/2000/svg">
  <defs
     id="defs8" />
  <sodipodi:namedview
     id="namedview6"
     pagecolor="#ffffff"
     bordercolor="#666666"
     borderopacity="1.0"
     inkscape:pageshadow="2"
     inkscape:pageopacity="0.0"
     inkscape:pagecheckerboard="0"
     showgrid="false"
     fit-margin-top="0"
     fit-margin-left="0"
     fit-margin-right="0"
     fit-margin-bottom="0"
     inkscape:zoom="26.833333"
     inkscape:cx="8.7391305"
     inkscape:cy="11.962733"
     inkscape:window-width="1920"
     inkscape:window-height="1051"
     inkscape:window-x="-9"
     inkscape:window-y="-9"
     inkscape:window-maximized="1"
     inkscape:current-layer="svg4" />
  <path
     fill="currentColor"
     d="m 15.46074,11.851852 -0.592592,2.962962 h -3.659259 l 0.592592,-2.962962 z M 4.8148145,0 A 4.8148147,4.8148147 0 0 0 0,4.8148145 V 21.851851 a 4.8148147,4.8148147 0 0 0 4.8148145,4.814815 H 21.851851 a 4.8148147,4.8148147 0 0 0 4.814815,-4.814815 V 4.8148145 A 4.8148147,4.8148147 0 0 0 21.851851,0 Z M 11.70074,6.6888886 a 1.1111111,1.1111111 0 0 1 0.871112,1.3066667 l -0.325927,1.6340738 h 3.65926 L 16.32,7.5599997 a 1.1111111,1.1111111 0 0 1 2.177777,0.4355556 l -0.325925,1.6340738 h 1.457777 a 1.1111114,1.1111114 0 0 1 0,2.2222229 h -1.903704 l -0.592592,2.962962 h 1.755555 a 1.1111115,1.1111115 0 0 1 0,2.222223 h -2.199999 l -0.414816,2.071111 A 1.1111111,1.1111111 0 0 1 14.096296,18.67111 l 0.325926,-1.634073 h -3.65926 l -0.414814,2.071111 A 1.1111111,1.1111111 0 0 1 8.1703701,18.67111 L 8.4962959,17.037037 H 7.0370368 a 1.1111115,1.1111115 0 0 1 0,-2.222223 h 1.9051851 l 0.5925925,-2.962962 h -1.757037 a 1.1111114,1.1111114 0 0 1 0,-2.2222229 h 2.201481 L 10.394073,7.5599997 A 1.1111111,1.1111111 0 0 1 11.70074,6.6888886 Z"
     id="path2"
     style="fill:#828282;fill-opacity:1;stroke-width:1" />
</svg>
