<?xml version="1.0" encoding="UTF-8" standalone="no"?>
<svg
   width="20"
   height="20"
   viewBox="0 0 20 20"
   version="1.1"
   id="svg4"
   sodipodi:docname="settings-48-filled.svg"
   inkscape:version="1.1.1 (3bf5ae0d25, 2021-09-20)"
   xmlns:inkscape="http://www.inkscape.org/namespaces/inkscape"
   xmlns:sodipodi="http://sodipodi.sourceforge.net/DTD/sodipodi-0.dtd"
   xmlns="http://www.w3.org/2000/svg"
   xmlns:svg="http://www.w3.org/2000/svg">
  <defs
     id="defs8" />
  <sodipodi:namedview
     id="namedview6"
     pagecolor="#ffffff"
     bordercolor="#666666"
     borderopacity="1.0"
     inkscape:pageshadow="2"
     inkscape:pageopacity="0.0"
     inkscape:pagecheckerboard="0"
     showgrid="false"
     fit-margin-top="0"
     fit-margin-left="0"
     fit-margin-right="0"
     fit-margin-bottom="0"
     inkscape:zoom="13.416667"
     inkscape:cx="18.89441"
     inkscape:cy="19.975155"
     inkscape:window-width="1920"
     inkscape:window-height="1051"
     inkscape:window-x="-9"
     inkscape:window-y="-9"
     inkscape:window-maximized="1"
     inkscape:current-layer="svg4" />
  <path
     fill="currentColor"
     d="M 7.7468457,19.734487 C 8.4863827,19.910996 9.2434207,20 10.003459,20 a 9.7129856,9.7129856 0 0 0 2.251612,-0.267013 0.9700485,0.9700485 0 0 0 0.737036,-0.836042 l 0.169009,-1.535577 a 1.159058,1.159058 0 0 1 1.091554,-1.037552 c 0.18351,-0.008 0.366019,0.0265 0.534027,0.100005 l 1.40357,0.615531 a 0.96104805,0.96104805 0 0 0 0.777039,0.005 c 0.123506,-0.0525 0.234012,-0.130506 0.325016,-0.229011 a 10.186509,10.186509 0 0 0 2.255113,-3.889695 0.97104855,0.97104855 0 0 0 -0.350017,-1.066553 l -1.247063,-0.920046 a 1.1630582,1.1630582 0 0 1 0,-1.882094 L 19.193417,8.138907 A 0.97154858,0.97154858 0 0 0 19.543435,7.069854 10.163008,10.163008 0 0 0 17.285822,3.1811591 0.9680484,0.9680484 0 0 0 16.189767,2.9561478 l -1.40307,0.6180309 c -0.145007,0.065503 -0.303015,0.100005 -0.463023,0.100005 A 1.1690585,1.1690585 0 0 1 13.163616,2.6301315 L 12.993607,1.100055 A 0.96854843,0.96854843 0 0 0 12.24357,0.259513 10.832042,10.832042 0 0 0 10.008959,0 10.961548,10.961548 0 0 0 7.7588467,0.260013 0.96754838,0.96754838 0 0 0 7.0088087,1.0985549 L 6.8388007,2.6296315 A 1.1725586,1.1725586 0 0 1 6.4547817,3.3736687 1.2630631,1.2630631 0 0 1 5.6702417,3.6736837 1.1500575,1.1500575 0 0 1 5.208719,3.5766787 L 3.808649,2.9586479 A 0.96854843,0.96854843 0 0 0 2.708594,3.1846592 10.177509,10.177509 0 0 0 0.45348116,7.072354 0.97054853,0.97054853 0 0 0 0.80349866,8.140907 L 2.0475609,9.058953 a 1.1720586,1.1720586 0 0 1 0.3505175,1.469073 1.1690585,1.1690585 0 0 1 -0.3500175,0.414521 l -1.24506224,0.919546 a 0.9700485,0.9700485 0 0 0 -0.3500175,1.067553 10.167008,10.167008 0 0 0 2.25511274,3.891195 0.96454823,0.96454823 0 0 0 1.0965549,0.227011 l 1.4090704,-0.618531 c 0.1455073,-0.064 0.3025151,-0.097 0.4615235,-0.097 h 0.004 a 1.1690585,1.1690585 0 0 1 1.160058,1.037051 l 0.169008,1.528577 a 0.9700485,0.9700485 0 0 0 0.738537,0.836542 z m 2.253113,-6.609331 a 3.1251563,3.1251563 0 1 1 0,-6.250312 3.1251563,3.1251563 0 0 1 0,6.250312 z"
     id="path2"
     style="stroke-width:1" />
</svg>
