<?xml version="1.0" encoding="UTF-8" standalone="no"?>
<svg
   width="20"
   height="20"
   viewBox="0 0 20 20"
   version="1.1"
   id="svg4"
   sodipodi:docname="time-and-weather-24-filled.svg"
   inkscape:version="1.1.1 (3bf5ae0d25, 2021-09-20)"
   xmlns:inkscape="http://www.inkscape.org/namespaces/inkscape"
   xmlns:sodipodi="http://sodipodi.sourceforge.net/DTD/sodipodi-0.dtd"
   xmlns="http://www.w3.org/2000/svg"
   xmlns:svg="http://www.w3.org/2000/svg">
  <defs
     id="defs8" />
  <sodipodi:namedview
     id="namedview6"
     pagecolor="#ffffff"
     bordercolor="#666666"
     borderopacity="1.0"
     inkscape:pageshadow="2"
     inkscape:pageopacity="0.0"
     inkscape:pagecheckerboard="0"
     showgrid="false"
     fit-margin-top="0"
     fit-margin-left="0"
     fit-margin-right="0"
     fit-margin-bottom="0"
     inkscape:zoom="26.833333"
     inkscape:cx="9.8571429"
     inkscape:cy="9.9875776"
     inkscape:window-width="1920"
     inkscape:window-height="1051"
     inkscape:window-x="-9"
     inkscape:window-y="-9"
     inkscape:window-maximized="1"
     inkscape:current-layer="svg4" />
  <path
     fill="currentColor"
     d="m 9.9964608,16.541412 a 1.0013566,1.0013566 0 0 1 0.9943472,0.884197 l 0.007,0.117159 v 1.457975 a 1.0013566,1.0013566 0 0 1 -1.9957032,0.116158 l -0.007,-0.116158 v -1.457975 a 1.0013566,1.0013566 0 0 1 1.001356,-1.001356 z m 6.0441882,-1.934621 1.031398,1.031397 a 1.0013566,1.0013566 0 0 1 -1.41692,1.414917 l -1.030396,-1.030396 a 1.0013566,1.0013566 0 0 1 1.415918,-1.415918 z m -10.6744613,0 a 1.0013566,1.0013566 0 0 1 0,1.415918 L 4.3367931,17.054106 A 1.0019135,1.0019135 0 0 1 2.9198735,15.637187 l 1.0313973,-1.031398 a 1.0013566,1.0013566 0 0 1 1.4159183,0 z M 10.009478,4.4650514 a 5.5324952,5.5324952 0 1 1 0,11.0649896 5.5324952,5.5324952 0 0 1 0,-11.0649896 z M 9.2484468,6.9964809 A 0.75101745,0.75101745 0 0 0 8.5044388,7.64536 l -0.007,0.1021384 v 3.0080746 l 0.007,0.102139 a 0.75101745,0.75101745 0 0 0 0.642871,0.641869 l 0.101137,0.007 h 2.0027142 l 0.102138,-0.007 a 0.75101745,0.75101745 0 0 0 0.64187,-0.641869 l 0.007,-0.102139 -0.007,-0.102138 a 0.75101745,0.75101745 0 0 0 -0.64187,-0.64187 l -0.102138,-0.007 H 9.9994648 V 7.7474984 l -0.006,-0.1021384 a 0.75101745,0.75101745 0 0 0 -0.74501,-0.6488791 z m 9.7401962,2.0207375 a 1.0013566,1.0013566 0 0 1 0.117159,1.9957036 l -0.117159,0.007 H 17.531669 A 1.0013566,1.0013566 0 0 1 17.414511,9.0242194 l 0.117158,-0.007 h 1.457975 z M 2.4692631,8.9891804 a 1.0013566,1.0013566 0 0 1 0.1171587,1.9957036 l -0.1171587,0.007 H 1.0102865 A 1.0013566,1.0013566 0 0 1 0.89412905,8.9961904 l 0.11615745,-0.007 z m 1.7724011,-6.1242968 0.095129,0.083113 1.030396,1.0313973 A 1.0013566,1.0013566 0 0 1 4.0453983,5.4784243 L 3.9512708,5.3943103 2.9198735,4.3639144 A 1.0013566,1.0013566 0 0 1 4.2416642,2.8648836 Z m 12.8303828,0.083113 a 1.0013566,1.0013566 0 0 1 0.08311,1.3217907 l -0.08311,0.094127 -1.031398,1.0313973 A 1.0013566,1.0013566 0 0 1 14.541618,4.073521 l 0.08311,-0.095129 1.031397,-1.0313973 a 1.0013566,1.0013566 0 0 1 1.415919,0 z M 9.9994648,2.333674e-6 A 1.0013566,1.0013566 0 0 1 10.993812,0.88420023 l 0.007,0.11715867 V 2.4583328 A 1.0013566,1.0013566 0 0 1 9.0041068,2.5754915 l -0.006,-0.1171587 V 1.0013589 A 1.0013566,1.0013566 0 0 1 9.9994638,2.333674e-6 Z"
     id="path2"
     style="stroke-width:1" />
</svg>
